<svg width="1200" height="560" viewBox="0 0 1200 560" xmlns="http://www.w3.org/2000/svg">
  <rect width="1200" height="560" fill="#FAF7F2"/>
  <circle cx="140" cy="290" r="280" fill="#E8F0E9" opacity="0.5"/>
  <circle cx="1060" cy="230" r="250" fill="#E8F0E9" opacity="0.4"/>
  <circle cx="920" cy="520" r="140" fill="#E0D8CF" opacity="0.3"/>
  
  <!-- Large oval platter -->
  <ellipse cx="600" cy="310" rx="200" ry="80" fill="#E0D8CF"/>
  <ellipse cx="600" cy="305" rx="180" ry="68" fill="#FAF7F2"/>
  <!-- Platter rim detail -->
  <ellipse cx="600" cy="310" rx="190" ry="74" fill="none" stroke="#D8D0C8" stroke-width="1.5"/>

  <!-- Roast centerpiece -->
  <ellipse cx="600" cy="295" rx="85" ry="48" fill="#C4622D" opacity="0.5"/>
  <ellipse cx="600" cy="290" rx="70" ry="38" fill="#C4622D" opacity="0.35"/>
  <!-- Grill marks -->
  <line x1="555" y1="280" x2="575" y2="300" stroke="#A34F23" stroke-width="2" opacity="0.3" stroke-linecap="round"/>
  <line x1="575" y1="275" x2="595" y2="295" stroke="#A34F23" stroke-width="2" opacity="0.3" stroke-linecap="round"/>
  <line x1="600" y1="273" x2="620" y2="293" stroke="#A34F23" stroke-width="2" opacity="0.3" stroke-linecap="round"/>

  <!-- Garnish around roast -->
  <circle cx="490" cy="305" r="12" fill="#6B8F71" opacity="0.5"/>
  <circle cx="510" cy="320" r="10" fill="#B5D4BB"/>
  <circle cx="700" cy="305" r="12" fill="#6B8F71" opacity="0.5"/>
  <circle cx="690" cy="322" r="10" fill="#B5D4BB"/>
  <circle cx="570" cy="340" r="8" fill="#6B8F71" opacity="0.4"/>
  <circle cx="630" cy="342" r="8" fill="#B5D4BB" opacity="0.6"/>

  <!-- Holly leaves (left) -->
  <ellipse cx="280" cy="210" rx="22" ry="10" fill="#4A6B50" transform="rotate(-30 280 210)"/>
  <ellipse cx="298" cy="204" rx="22" ry="10" fill="#6B8F71" transform="rotate(20 298 204)"/>
  <circle cx="289" cy="195" r="6" fill="#C4622D" opacity="0.65"/>
  <circle cx="281" cy="200" r="5" fill="#C4622D" opacity="0.55"/>

  <!-- Star decoration (top center) -->
  <polygon points="600,130 612,158 643,158 618,175 628,205 600,188 572,205 582,175 557,158 588,158" fill="#C4622D" opacity="0.4"/>
  <polygon points="600,140 609,160 632,160 614,172 621,195 600,182 579,195 586,172 568,160 591,160" fill="#C4622D" opacity="0.25"/>

  <!-- Candles (right) -->
  <rect x="850" y="225" width="14" height="80" rx="4" fill="#E0D8CF" stroke="#D8D0C8" stroke-width="1"/>
  <rect x="873" y="210" width="14" height="95" rx="4" fill="#C4622D" opacity="0.45"/>
  <!-- Flames -->
  <ellipse cx="857" cy="220" rx="6" ry="10" fill="#F8D830" opacity="0.6"/>
  <ellipse cx="857" cy="218" rx="3" ry="6" fill="#FAF7F2" opacity="0.5"/>
  <ellipse cx="880" cy="205" rx="6" ry="10" fill="#F8D830" opacity="0.6"/>
  <ellipse cx="880" cy="203" rx="3" ry="6" fill="#FAF7F2" opacity="0.5"/>

  <circle cx="180" cy="170" r="5" fill="#C4622D" opacity="0.5"/>
  <circle cx="930" cy="180" r="6" fill="#6B8F71" opacity="0.35"/>
  <circle cx="450" cy="170" r="4" fill="#6B8F71" opacity="0.3"/>
  <rect x="430" y="510" width="340" height="3" rx="1.5" fill="#6B8F71" opacity="0.22"/>
</svg>