<svg width="1200" height="560" viewBox="0 0 1200 560" xmlns="http://www.w3.org/2000/svg">
  <rect width="1200" height="560" fill="#FAF7F2"/>
  <circle cx="177" cy="327" r="277" fill="#E8F0E9" opacity="0.5"/>
  <circle cx="1097" cy="227" r="237" fill="#E8F0E9" opacity="0.4"/>
  <circle cx="957" cy="517" r="177" fill="#E0D8CF" opacity="0.3"/>
  
  <!-- Cluttered to tidy arrow -->
  <!-- Before: messy pile -->
  <rect x="140" y="280" width="70" height="45" rx="5" fill="#D8D0C8" transform="rotate(-8 140 280)"/>
  <rect x="160" y="260" width="55" height="38" rx="5" fill="#E0D8CF" transform="rotate(5 160 260)"/>
  <rect x="148" y="240" width="80" height="30" rx="4" fill="#D8D0C8" transform="rotate(-4 148 240)"/>
  <rect x="170" y="220" width="60" height="28" rx="4" fill="#E0D8CF" transform="rotate(7 170 220)"/>
  <!-- X marks -->
  <path d="M155 300 L175 320 M175 300 L155 320" stroke="#C4622D" stroke-width="2.5" opacity="0.5"/>
  <!-- Arrow -->
  <path d="M350 280 L460 280" stroke="#6B8F71" stroke-width="3" stroke-linecap="round"/>
  <polygon points="455,272 472,280 455,288" fill="#6B8F71"/>
  <!-- After: neat shelf -->
  <rect x="520" y="195" width="320" height="12" rx="4" fill="#D8D0C8"/>
  <rect x="520" y="280" width="320" height="12" rx="4" fill="#D8D0C8"/>
  <rect x="520" y="365" width="320" height="12" rx="4" fill="#D8D0C8"/>
  <!-- Neatly arranged items on shelves -->
  <rect x="535" y="225" width="40" height="55" rx="5" fill="#6B8F71" opacity="0.5"/>
  <rect x="583" y="235" width="35" height="45" rx="5" fill="#6B8F71" opacity="0.4"/>
  <rect x="626" y="220" width="42" height="60" rx="5" fill="#E8F0E9" stroke="#B5D4BB" stroke-width="1"/>
  <rect x="676" y="230" width="38" height="50" rx="5" fill="#D4B882" opacity="0.6"/>
  <rect x="722" y="225" width="40" height="55" rx="5" fill="#6B8F71" opacity="0.45"/>
  <rect x="535" y="310" width="35" height="55" rx="5" fill="#D4B882" opacity="0.55"/>
  <rect x="580" y="300" width="45" height="65" rx="5" fill="#E8F0E9" stroke="#B5D4BB" stroke-width="1"/>
  <rect x="634" y="308" width="38" height="57" rx="5" fill="#6B8F71" opacity="0.4"/>
  <rect x="682" y="298" width="42" height="67" rx="5" fill="#D8D0C8"/>
  <!-- Check mark -->
  <path d="M790 255 L800 268 L820 240" stroke="#6B8F71" stroke-width="3" fill="none" stroke-linecap="round"/>
  <circle cx="200" cy="420" r="5" fill="#C4622D" opacity="0.4"/>
  <circle cx="950" cy="420" r="4" fill="#C4622D" opacity="0.3"/>
  <rect x="430" y="510" width="340" height="3" rx="1.5" fill="#6B8F71" opacity="0.22"/>
</svg>