<svg width="1200" height="560" viewBox="0 0 1200 560" xmlns="http://www.w3.org/2000/svg">
  <rect width="1200" height="560" fill="#FAF7F2"/>
  <circle cx="171" cy="321" r="271" fill="#E8F0E9" opacity="0.5"/>
  <circle cx="1091" cy="221" r="241" fill="#E8F0E9" opacity="0.4"/>
  <circle cx="951" cy="511" r="171" fill="#E0D8CF" opacity="0.3"/>
  
  <!-- Salt shaker with X -->
  <rect x="200" y="230" width="75" height="135" rx="10" fill="#D8D0C8"/>
  <path d="M200 230 Q200 200 237 200 Q275 200 275 230" fill="#E0D8CF"/>
  <!-- Salt holes -->
  <circle cx="222" cy="215" r="3.5" fill="#FAF7F2"/>
  <circle cx="237" cy="212" r="3.5" fill="#FAF7F2"/>
  <circle cx="252" cy="215" r="3.5" fill="#FAF7F2"/>
  <!-- Red X over salt -->
  <line x1="185" y1="210" x2="290" y2="365" stroke="#C4622D" stroke-width="6" stroke-linecap="round" opacity="0.65"/>
  <line x1="290" y1="210" x2="185" y2="365" stroke="#C4622D" stroke-width="6" stroke-linecap="round" opacity="0.65"/>
  <!-- S letter on shaker -->
  <text x="237" y="300" text-anchor="middle" fill="#A0A0A0" font-size="28" font-family="system-ui" font-weight="700" opacity="0.4">S</text>

  <!-- Rosemary sprig (large, center) -->
  <g transform="translate(500, 400)">
    <line x1="0" y1="0" x2="20" y2="-160" stroke="#6B8F71" stroke-width="3" stroke-linecap="round"/>
    <ellipse cx="8" cy="-30" rx="16" ry="6" fill="#6B8F71" opacity="0.7" transform="rotate(-40 8 -30)"/>
    <ellipse cx="28" cy="-50" rx="16" ry="6" fill="#4A6B50" opacity="0.7" transform="rotate(30 28 -50)"/>
    <ellipse cx="10" cy="-70" rx="14" ry="5" fill="#6B8F71" opacity="0.65" transform="rotate(-35 10 -70)"/>
    <ellipse cx="30" cy="-90" rx="14" ry="5" fill="#4A6B50" opacity="0.6" transform="rotate(25 30 -90)"/>
    <ellipse cx="14" cy="-108" rx="12" ry="5" fill="#6B8F71" opacity="0.6" transform="rotate(-30 14 -108)"/>
    <ellipse cx="28" cy="-125" rx="10" ry="4" fill="#4A6B50" opacity="0.55" transform="rotate(20 28 -125)"/>
    <ellipse cx="18" cy="-142" rx="8" ry="4" fill="#6B8F71" opacity="0.5" transform="rotate(-20 18 -142)"/>
  </g>

  <!-- Basil leaves (right of rosemary) -->
  <g transform="translate(620, 350)">
    <line x1="0" y1="0" x2="0" y2="-60" stroke="#4A6B50" stroke-width="2.5" stroke-linecap="round"/>
    <path d="M0 -20 Q-25 -35 -20 -55 Q-5 -50 0 -35" fill="#6B8F71" opacity="0.7"/>
    <path d="M0 -20 Q25 -35 20 -55 Q5 -50 0 -35" fill="#4A6B50" opacity="0.6"/>
    <path d="M0 -40 Q-20 -55 -15 -70 Q-3 -65 0 -52" fill="#6B8F71" opacity="0.6"/>
    <path d="M0 -40 Q20 -55 15 -70 Q3 -65 0 -52" fill="#4A6B50" opacity="0.55"/>
  </g>

  <!-- Lemon (center right) -->
  <ellipse cx="780" cy="300" rx="55" ry="42" fill="#F8D830" opacity="0.7"/>
  <ellipse cx="780" cy="297" rx="42" ry="32" fill="#FDE860" opacity="0.5"/>
  <!-- Lemon slice -->
  <circle cx="860" cy="330" r="30" fill="#F8D830" opacity="0.6"/>
  <circle cx="860" cy="330" r="22" fill="#FDE860" opacity="0.5"/>
  <line x1="860" y1="310" x2="860" y2="350" stroke="#D8A820" stroke-width="1.2" opacity="0.5"/>
  <line x1="842" y1="318" x2="878" y2="342" stroke="#D8A820" stroke-width="1.2" opacity="0.5"/>
  <line x1="878" y1="318" x2="842" y2="342" stroke="#D8A820" stroke-width="1.2" opacity="0.5"/>

  <!-- Garlic bulb -->
  <ellipse cx="720" cy="380" rx="22" ry="28" fill="#FAF7F2" stroke="#D8D0C8" stroke-width="1.5"/>
  <path d="M714 365 Q720 355 726 365" fill="#D8D0C8" opacity="0.6"/>
  <line x1="720" y1="358" x2="720" y2="380" stroke="#D8D0C8" stroke-width="1" opacity="0.4"/>

  <!-- Pepper grinder -->
  <rect x="920" y="240" width="40" height="100" rx="6" fill="#8A7858"/>
  <rect x="916" y="235" width="48" height="12" rx="4" fill="#6B8F71"/>
  <circle cx="940" cy="230" r="6" fill="#4A6B50"/>
  <rect x="924" y="290" width="32" height="4" rx="2" fill="#7A6848" opacity="0.5"/>
  <rect x="924" y="310" width="32" height="4" rx="2" fill="#7A6848" opacity="0.5"/>

  <circle cx="380" cy="180" r="6" fill="#6B8F71" opacity="0.4"/>
  <circle cx="140" cy="400" r="5" fill="#C4622D" opacity="0.35"/>
  <circle cx="960" cy="180" r="4" fill="#C4622D" opacity="0.35"/>
  <rect x="430" y="510" width="340" height="3" rx="1.5" fill="#6B8F71" opacity="0.22"/>
</svg>