<svg width="1200" height="560" viewBox="0 0 1200 560" xmlns="http://www.w3.org/2000/svg">
  <rect width="1200" height="560" fill="#FAF7F2"/>
  <circle cx="142" cy="292" r="282" fill="#E8F0E9" opacity="0.5"/>
  <circle cx="1062" cy="232" r="232" fill="#E8F0E9" opacity="0.4"/>
  <circle cx="922" cy="522" r="142" fill="#E0D8CF" opacity="0.3"/>
  
  <!-- Wheelchair accessibility symbol (left) -->
  <circle cx="250" cy="260" r="55" fill="#E8F0E9"/>
  <circle cx="250" cy="260" r="55" fill="none" stroke="#6B8F71" stroke-width="3"/>
  <!-- Person in chair -->
  <circle cx="248" cy="235" r="12" fill="#6B8F71"/>
  <line x1="248" y1="247" x2="248" y2="272" stroke="#6B8F71" stroke-width="3.5" stroke-linecap="round"/>
  <path d="M248 272 L262 290 L275 283" stroke="#6B8F71" stroke-width="3.5" fill="none" stroke-linecap="round"/>
  <!-- Wheel -->
  <circle cx="255" cy="278" r="18" fill="none" stroke="#6B8F71" stroke-width="3"/>
  <circle cx="255" cy="278" r="3" fill="#6B8F71"/>

  <!-- Lowered kitchen counter (center-right) -->
  <rect x="420" y="290" width="480" height="16" rx="4" fill="#D8D0C8"/>
  <!-- Counter legs -->
  <rect x="430" y="306" width="14" height="110" rx="3" fill="#D8D0C8"/>
  <rect x="886" y="306" width="14" height="110" rx="3" fill="#D8D0C8"/>
  <!-- Open space below counter for wheelchair -->
  <path d="M444 416 L886 416" stroke="#B5D4BB" stroke-width="2" stroke-dasharray="8,5" opacity="0.4"/>
  <!-- Wheelchair space arrow indicator -->
  <path d="M600 360 L660 360" stroke="#6B8F71" stroke-width="2" fill="none" stroke-linecap="round" opacity="0.4"/>
  <path d="M655 355 L660 360 L655 365" stroke="#6B8F71" stroke-width="2" fill="none" stroke-linecap="round" opacity="0.4"/>
  <path d="M660 360 L600 360" stroke="#6B8F71" stroke-width="2" fill="none" stroke-linecap="round" opacity="0.4"/>
  <path d="M605 355 L600 360 L605 365" stroke="#6B8F71" stroke-width="2" fill="none" stroke-linecap="round" opacity="0.4"/>

  <!-- Sink on counter -->
  <rect x="560" y="270" width="80" height="22" rx="6" fill="#E8F0E9"/>
  <ellipse cx="600" cy="279" rx="30" ry="8" fill="#B5D4BB" opacity="0.4"/>
  <!-- Faucet -->
  <path d="M600 262 Q600 245 615 245 L620 245" stroke="#A0A0A0" stroke-width="4" fill="none" stroke-linecap="round"/>
  <!-- Drip -->
  <ellipse cx="600" cy="280" rx="2" ry="3" fill="#B5D4BB" opacity="0.5"/>

  <!-- Pull-down cabinet above -->
  <rect x="700" y="140" width="160" height="120" rx="8" fill="#D8D0C8"/>
  <rect x="708" y="148" width="144" height="104" rx="4" fill="#FAF7F2"/>
  <!-- Shelf inside -->
  <rect x="708" y="198" width="144" height="3" fill="#D8D0C8"/>
  <!-- Items on shelf -->
  <rect x="720" y="165" width="25" height="30" rx="4" fill="#6B8F71" opacity="0.5"/>
  <rect x="752" y="170" width="22" height="25" rx="4" fill="#B5D4BB" opacity="0.5"/>
  <!-- Pull-down handle -->
  <rect x="770" y="260" width="30" height="8" rx="4" fill="#4A6B50"/>
  <path d="M785 268 L785 255" stroke="#4A6B50" stroke-width="2" stroke-dasharray="3,2"/>

  <!-- Pot on lowered counter -->
  <rect x="480" y="260" width="55" height="30" rx="5" fill="#4A6B50"/>
  <rect x="475" y="255" width="65" height="10" rx="5" fill="#6B8F71"/>

  <circle cx="170" cy="170" r="6" fill="#C4622D" opacity="0.5"/>
  <circle cx="940" cy="200" r="5" fill="#6B8F71" opacity="0.35"/>
  <circle cx="350" cy="420" r="4" fill="#6B8F71" opacity="0.3"/>
  <rect x="430" y="510" width="340" height="3" rx="1.5" fill="#6B8F71" opacity="0.22"/>
</svg>