<svg width="1200" height="560" viewBox="0 0 1200 560" xmlns="http://www.w3.org/2000/svg">
  <!-- Background -->
  <rect width="1200" height="560" fill="#FAF7F2"/>
  <!-- Background shapes -->
  <circle cx="180" cy="290" r="270" fill="#E8F0E9" opacity="0.5"/>
  <circle cx="1030" cy="260" r="230" fill="#E8F0E9" opacity="0.4"/>

  <!-- ── LARGE SAFETY SHIELD (center) ── -->
  <path d="M600 80 Q730 80 780 130 L780 300 Q780 420 600 470 Q420 420 420 300 L420 130 Q470 80 600 80 Z" fill="#6B8F71" opacity="0.15"/>
  <path d="M600 95 Q722 95 768 142 L768 300 Q768 410 600 456 Q432 410 432 300 L432 142 Q478 95 600 95 Z" fill="#6B8F71" opacity="0.2"/>
  <path d="M600 112 Q712 112 754 154 L754 300 Q754 397 600 440 Q446 397 446 300 L446 154 Q488 112 600 112 Z" fill="none" stroke="#6B8F71" stroke-width="4" opacity="0.5"/>

  <!-- ── FIRE EXTINGUISHER (center-left) ── -->
  <!-- Body -->
  <rect x="290" y="230" width="65" height="160" rx="16" fill="#C4622D"/>
  <!-- Shoulder (top taper) -->
  <path d="M290 246 Q322 226 355 246 Z" fill="#A34F23"/>
  <!-- Pressure gauge -->
  <circle cx="322" cy="240" r="20" fill="#FAF7F2"/>
  <circle cx="322" cy="240" r="14" fill="#E0E0E0"/>
  <!-- Gauge needle - in safe zone -->
  <line x1="322" y1="240" x2="330" y2="232" stroke="#6B8F71" stroke-width="2.5" stroke-linecap="round"/>
  <!-- Nozzle -->
  <rect x="330" y="226" width="50" height="9" rx="4.5" fill="#3A3A3A"/>
  <rect x="374" y="216" width="9" height="28" rx="4.5" fill="#3A3A3A"/>
  <!-- Handle -->
  <path d="M290 260 Q268 258 262 268 Q260 278 268 282 Q278 286 290 282" stroke="#8A4A20" stroke-width="8" fill="none" stroke-linecap="round"/>
  <!-- Label band -->
  <rect x="295" y="300" width="55" height="50" rx="6" fill="#A34F23"/>
  <rect x="300" y="308" width="45" height="5" rx="2" fill="#FAF7F2" opacity="0.4"/>
  <rect x="300" y="318" width="35" height="5" rx="2" fill="#FAF7F2" opacity="0.4"/>
  <rect x="300" y="328" width="40" height="5" rx="2" fill="#FAF7F2" opacity="0.4"/>
  <!-- Bottom base -->
  <rect x="285" y="385" width="75" height="12" rx="6" fill="#8A3A10"/>

  <!-- ── SMOKE DETECTOR (top right) ── -->
  <ellipse cx="870" cy="165" rx="70" ry="22" fill="#D8D0C8"/>
  <ellipse cx="870" cy="152" rx="62" ry="52" fill="#E0D8D0"/>
  <ellipse cx="870" cy="152" rx="50" ry="42" fill="#EEE6DE"/>
  <!-- LED -->
  <circle cx="870" cy="152" r="10" fill="#C4622D"/>
  <circle cx="870" cy="152" r="6" fill="#FF6040" opacity="0.8"/>
  <!-- Vents -->
  <path d="M828 145 Q870 138 912 145" stroke="#C0B8B0" stroke-width="2" fill="none"/>
  <path d="M828 152 Q870 145 912 152" stroke="#C0B8B0" stroke-width="2" fill="none"/>
  <path d="M828 159 Q870 152 912 159" stroke="#C0B8B0" stroke-width="2" fill="none"/>
  <!-- Mounting screws -->
  <circle cx="840" cy="130" r="4" fill="#A8A0A0"/>
  <circle cx="900" cy="130" r="4" fill="#A8A0A0"/>
  <!-- Alert wave (sound) -->
  <path d="M930 130 Q950 145 930 162" stroke="#C4622D" stroke-width="2.5" fill="none" stroke-linecap="round" opacity="0.7"/>
  <path d="M942 120 Q972 145 942 170" stroke="#C4622D" stroke-width="2.5" fill="none" stroke-linecap="round" opacity="0.5"/>
  <path d="M954 112 Q992 145 954 178" stroke="#C4622D" stroke-width="2" fill="none" stroke-linecap="round" opacity="0.35"/>

  <!-- ── NON-SLIP MAT (bottom center) ── -->
  <!-- Mat body -->
  <rect x="450" y="395" width="300" height="55" rx="10" fill="#6B8F71" opacity="0.8"/>
  <!-- Mat texture grid -->
  <g opacity="0.35">
    <rect x="468" y="403" width="18" height="39" rx="3" fill="#FAF7F2"/>
    <rect x="494" y="403" width="18" height="39" rx="3" fill="#FAF7F2"/>
    <rect x="520" y="403" width="18" height="39" rx="3" fill="#FAF7F2"/>
    <rect x="546" y="403" width="18" height="39" rx="3" fill="#FAF7F2"/>
    <rect x="572" y="403" width="18" height="39" rx="3" fill="#FAF7F2"/>
    <rect x="598" y="403" width="18" height="39" rx="3" fill="#FAF7F2"/>
    <rect x="624" y="403" width="18" height="39" rx="3" fill="#FAF7F2"/>
    <rect x="650" y="403" width="18" height="39" rx="3" fill="#FAF7F2"/>
    <rect x="676" y="403" width="18" height="39" rx="3" fill="#FAF7F2"/>
    <rect x="702" y="403" width="18" height="39" rx="3" fill="#FAF7F2"/>
    <rect x="728" y="403" width="18" height="39" rx="3" fill="#FAF7F2"/>
  </g>
  <!-- Non-slip label badge -->
  <rect x="556" y="408" width="88" height="28" rx="5" fill="#4A6B50"/>
  <text x="600" y="427" text-anchor="middle" fill="#FAF7F2" font-size="11" font-family="system-ui, sans-serif" font-weight="700">NON-SLIP</text>
  <!-- Suction cup indicators -->
  <circle cx="470" cy="456" r="6" fill="#4A6B50"/>
  <circle cx="500" cy="456" r="6" fill="#4A6B50"/>
  <circle cx="700" cy="456" r="6" fill="#4A6B50"/>
  <circle cx="730" cy="456" r="6" fill="#4A6B50"/>

  <!-- ── OVEN MITTS (right) ── -->
  <!-- Mitt 1 -->
  <path d="M880 280 Q900 260 930 268 Q955 278 955 310 Q955 340 940 355 Q920 368 898 358 Q875 346 875 318 Q873 298 880 280 Z" fill="#C4622D"/>
  <!-- Thumb -->
  <path d="M955 290 Q978 282 982 300 Q982 316 965 320 Q955 318 955 308 Z" fill="#C4622D"/>
  <!-- Cuff extension -->
  <path d="M876 318 Q875 360 878 380 Q888 392 912 392 Q936 392 944 380 Q946 360 940 355" fill="#A34F23"/>
  <!-- Mitt 2 (behind) -->
  <path d="M926 290 Q946 272 972 280 Q994 292 992 320 Q990 348 975 360 Q956 370 936 360 Q916 348 914 320 Q912 302 926 290 Z" fill="#D4622D" opacity="0.7"/>
  <!-- Silicone texture dots -->
  <circle cx="900" cy="310" r="4" fill="#A34F23" opacity="0.5"/>
  <circle cx="918" cy="300" r="4" fill="#A34F23" opacity="0.5"/>
  <circle cx="912" cy="320" r="4" fill="#A34F23" opacity="0.5"/>
  <circle cx="930" cy="312" r="4" fill="#A34F23" opacity="0.5"/>

  <!-- ── TIMER (bottom left) ── -->
  <circle cx="340" cy="400" r="55" fill="#E0D8D0"/>
  <circle cx="340" cy="400" r="46" fill="#FAF7F2"/>
  <!-- Timer face -->
  <circle cx="340" cy="400" r="38" fill="none" stroke="#6B8F71" stroke-width="3"/>
  <!-- Tick marks -->
  <line x1="340" y1="365" x2="340" y2="372" stroke="#2C2C2C" stroke-width="2.5" stroke-linecap="round"/>
  <line x1="375" y1="400" x2="368" y2="400" stroke="#2C2C2C" stroke-width="2.5" stroke-linecap="round"/>
  <line x1="340" y1="435" x2="340" y2="428" stroke="#2C2C2C" stroke-width="2.5" stroke-linecap="round"/>
  <line x1="305" y1="400" x2="312" y2="400" stroke="#2C2C2C" stroke-width="2.5" stroke-linecap="round"/>
  <!-- Timer hands -->
  <line x1="340" y1="400" x2="340" y2="373" stroke="#C4622D" stroke-width="3" stroke-linecap="round"/>
  <line x1="340" y1="400" x2="358" y2="410" stroke="#2C2C2C" stroke-width="2.5" stroke-linecap="round"/>
  <circle cx="340" cy="400" r="5" fill="#2C2C2C"/>
  <!-- Bell on top -->
  <path d="M328 358 Q340 348 352 358 Q348 352 340 350 Q332 352 328 358 Z" fill="#C4622D"/>
  <circle cx="340" cy="350" r="3.5" fill="#A34F23"/>

  <!-- ── CHECKMARK BADGE (top center) ── -->
  <circle cx="600" cy="155" r="48" fill="#6B8F71" opacity="0.18"/>
  <circle cx="600" cy="155" r="38" fill="#6B8F71" opacity="0.9"/>
  <path d="M580 155 L594 170 L622 138" stroke="#FAF7F2" stroke-width="6" fill="none" stroke-linecap="round" stroke-linejoin="round"/>

  <!-- ── SPARKLE ACCENTS ── -->
  <circle cx="200" cy="175" r="6" fill="#C4622D" opacity="0.45"/>
  <circle cx="220" cy="192" r="4" fill="#C4622D" opacity="0.3"/>
  <circle cx="1020" cy="390" r="7" fill="#C4622D" opacity="0.4"/>
  <circle cx="1040" cy="370" r="4.5" fill="#6B8F71" opacity="0.4"/>

  <!-- Bottom accent -->
  <rect x="440" y="505" width="320" height="3" rx="1.5" fill="#6B8F71" opacity="0.2"/>
</svg>
